<?xml version="1.0" encoding="utf-8"?>
<svg version="1.1" id="Layer_1" xmlns="http://www.w3.org/2000/svg" xmlns:xlink="http://www.w3.org/1999/xlink" x="0px" y="0px"
       viewBox="0 0 862 246" style="enable-background:new 0 0 862 246;" xml:space="preserve">
<style type="text/css">
      .st0{fill:#FF0000;}
      .st1{fill:#FFFFFF;}
</style>
<polygon class="st0" points="742,246 0,246 120,0 862,0 "/>
<g>
      <path class="st1" d="M270.2,98c1.3,0.1,2.3-0.7,2.9-2.3c0.3-0.8,1-1.9,2.1-3.2c1-1.3,2.2-2.7,3.5-4.3c1.3-1.6,2.6-3.2,3.9-4.9
            c1.3-1.6,2.2-3.2,2.9-4.6c0.7-1.4,0.8-2.7,0.4-3.9c-0.4-1.2-1.1-2.2-2-2.9c-0.9-0.7-1.9-1.1-3.2-1.3c-1.2-0.2-2.4,0.1-3.4,0.7
            c-2.8,1.5-4.9,3.6-6.5,6c-1.5,2.5-2.7,5-3.3,7.5c-0.7,2.5-1,4.8-1,6.8c0,2,0.2,3.4,0.6,4.1C267.8,97.2,268.8,97.9,270.2,98z"/>
      <path class="st1" d="M688,118.8c-0.8-0.7-2-1-3.5-0.7c-1.5,0.3-3.1,1.3-4.7,3c-7.8,7.9-14.8,14.4-20.9,19.5
            c-6.1,5.1-11.8,9-17.2,11.7c-4.3,2.1-7.9,3.4-10.8,3.7c-2.9,0.3-5.2-0.1-6.7-1.2c-1.6-1.1-2.5-2.8-2.7-5c-0.2-2.2,0.3-4.7,1.4-7.5
            c10.2-2.2,18.7-5.5,25.5-9.7c6.8-4.3,11.8-8.7,15.1-13.4c3.3-4.6,5-9,5.1-13.1c0.1-4.1-1.4-7-4.5-8.9c-2-1.1-4.5-1.7-7.5-1.6
            c-3,0.1-6.5,1.2-10.4,3.4c-3.9,2.2-8.2,5.7-12.8,10.5c-3.4,3.5-7,7.9-10.7,13.2c-5.1,5.2-9.5,9.6-13.2,13.1
            c-3.9,3.7-7.3,7-10.2,9.8c-1.7,1.7-3.2,2.9-4.5,3.8c-1.3,0.9-2.2,1.2-2.9,1c-0.6-0.2-0.9-1.2-0.6-3c0.2-1.8,1-4.5,2.4-8.2
            c1.4-3.6,3.6-8.9,6.7-15.8c3.1-6.9,6.8-14.5,11-22.9c4.2-8.3,8.9-16.9,14-25.6c5.1-8.7,10.3-16.8,15.7-24.1
            c1.6-2.1,2.4-4.2,2.4-6.3c0-2.1-0.5-3.7-1.5-4.9c-0.9-1.2-2.2-1.7-3.9-1.6c-1.6,0.1-3.3,1.2-4.9,3.3c-1.5,1.9-4.3,5.6-8.4,11.3
            c-4.1,5.6-9.2,12.3-15.2,19.9c-6,7.6-12.7,15.8-20.1,24.5c-7.4,8.7-15,17.1-22.8,25.3c0,0,0,0,0,0c-3.3,3.4-7.3,7.4-11.9,12.1
            c-4.6,4.7-9.4,9.4-14.3,14.2c-4.9,4.8-9.6,9.3-14.2,13.6c-4.6,4.3-8.4,7.9-11.7,10.8c-3.2,2.9-5.5,4.7-6.8,5.5
            c-1.3,0.8-1.2,0,0.4-2.4c1.4-2,3.7-5.1,6.9-9.4c3.2-4.3,6.7-9.2,10.5-14.6c3.8-5.5,7.5-11.2,11.3-17.4c3.7-6.1,6.8-12,9.2-17.6
            c1-2.5,1.3-4.8,0.8-7c-0.5-2.2-1.4-3.9-2.8-5c-1.4-1.1-2.9-1.5-4.6-1.3c-1.7,0.2-3.3,1.4-4.7,3.6c-1.4,2.3-2.6,4.4-3.8,6.1
            c-1.1,1.7-2.4,3.4-3.6,4.9c-1.3,1.6-2.7,3.2-4.2,4.8c-1.6,1.6-3.4,3.4-5.6,5.4c-4.4,3.9-7,5.2-7.7,4c-0.8-1.2,0.1-4.6,2.6-10.3
            c1.4-3.2,2.1-6,2.2-8.5c0.1-2.5-0.4-4.5-1.4-6.1c-1-1.6-2.4-2.6-4.1-3c-1.8-0.4-3.7-0.2-5.9,0.8c-2.3,1.1-4.5,2.4-6.6,3.9
            c-2.1,1.5-4,3.2-5.9,4.9c-1.8,1.7-3.5,3.4-5,5c-1.5,1.6-2.8,2.9-3.8,4c0,0,0,0,0,0c-3.9,3.9-7.6,7.4-11.1,10.6
            c-3.5,3.2-6.4,5.7-8.6,7.4c-2,1.5-3.6,2.5-4.8,2.8c-1.2,0.3-2.1,0.3-2.7-0.1c-0.6-0.4-0.9-1.1-1.1-2.2c-0.1-1,0-2.2,0.3-3.5
            c0.6-2.1,1.3-4.6,2.3-7.4c1-2.8,2.1-5.8,3.3-8.9c1.2-3.1,2.6-6.2,4-9.4c1.4-3.2,2.9-6.2,4.5-9.1c1.3-2.5,2.8-5.2,4.7-8.1
            c1.9-2.9,3.9-5.9,5.9-8.8c3.4-0.2,6.7-0.3,10-0.5c3.3-0.2,6.5-0.4,9.8-0.8c1.9-0.3,3.2-1.2,3.9-2.8c0.7-1.6,1-3.2,0.8-5
            c-0.2-1.7-0.8-3.3-1.7-4.6c-0.9-1.3-2.2-1.8-3.7-1.4c-1.2,0.2-2.5,0.5-4.1,0.7c-1.6,0.3-3.3,0.5-5.3,0.8c1.7-2.7,2.9-5.1,3.4-7.3
            c0.6-2.2,0.7-4,0.5-5.4c-0.2-1.5-0.7-2.6-1.4-3.4c-0.8-0.8-1.7-1.2-2.7-1.2c-0.9-0.1-2,0.1-3.1,0.6c-1.1,0.5-2.2,1.2-3.2,2.3
            c-1.7,1.7-3.6,3.9-5.5,6.7c-2,2.8-3.9,6.1-5.8,9.7c-4.2,0.4-8.4,0.8-12.7,1.2c-4.3,0.4-8.3,0.9-12.1,1.4c-3.8,0.5-7.3,1-10.4,1.5
            c-3.1,0.5-5.6,1.1-7.4,1.7c-1.3,0.5-2.2,1.4-2.8,2.8c-0.6,1.4-0.8,2.8-0.7,4.2c0.1,1.4,0.5,2.6,1.3,3.6c0.8,1,1.9,1.3,3.4,0.9
            c6.4-1.7,12.5-2.9,18.2-3.6c5.8-0.7,11.4-1.2,17-1.5l-5.1,11.3c-3.5,4-7.1,8.1-10.9,12.4c-3.8,4.2-7.8,8.6-12.1,13.1c0,0,0,0,0,0
            c-3,2.9-6.5,5.3-10.4,7.2c-3.9,1.9-7.9,3.4-11.8,4.6c1.6-4.4,2.7-8.7,3.3-12.8c0.7-4.1,0.9-7.6,0.8-10.7c0-1.7-0.5-3.3-1.5-4.6
            c-1-1.3-2.2-2.3-3.7-3c-1.5-0.7-3-1.1-4.6-1.2c-1.6-0.1-3.1,0.2-4.5,0.9c-1.3,0.6-3,1.8-5,3.5c-2.1,1.7-4.2,3.6-6.5,5.7
            c-2.2,2.1-4.4,4.1-6.5,6.2c-1.7,1.6-3,3-4.1,4.1c-0.3,0.2-0.5,0.5-0.8,0.8c0,0,0,0,0,0c-0.1,0.1-0.1,0.1-0.2,0.2
            c-7.8,7.8-14.7,14.3-20.8,19.3c-6.1,5.1-11.8,9-17.2,11.7c-4.3,2.1-7.9,3.4-10.8,3.7c-2.9,0.3-5.2-0.1-6.7-1.2
            c-1.6-1.1-2.5-2.8-2.7-5c-0.2-2.2,0.3-4.7,1.4-7.5c10.2-2.2,18.7-5.5,25.5-9.7c6.8-4.3,11.8-8.7,15.1-13.4c3.3-4.6,5-9,5.1-13.1
            c0.1-4.1-1.4-7-4.5-8.9c-2-1.1-4.5-1.7-7.5-1.6c-3,0.1-6.5,1.2-10.4,3.4c-3.9,2.2-8.2,5.7-12.8,10.5c-3.4,3.5-6.9,7.8-10.5,13
            c-2.2,2.1-4.7,3.9-7.4,5.4c-3.1,1.6-6.2,2.7-9.5,3.2c-3.3,0.5-6.5,0.5-9.7-0.2c-3.2-0.6-6.2-1.9-8.9-3.8l0-0.3
            c8.1-14,16.7-27.7,25.8-41.3c9.1-13.6,17.8-26.6,26.3-39.2c1.1-1.9,1.6-3.7,1.2-5.3c-0.3-1.7-1.1-2.9-2.5-3.6c-1.4-0.7-3-0.8-5,0
            c-2,0.7-4.1,2.6-6.2,5.5c-3.2,4.5-6.7,9.4-10.4,14.7c-3.7,5.3-7.6,11-11.6,17.1c-4,6.1-8.1,12.4-12.2,19
            c-4.1,6.6-8.2,13.4-12.2,20.2c-0.2,0-0.5,0-0.7-0.1c-0.2-0.1-0.5-0.1-0.7-0.1c-2.3,0-4.3,1.2-5.8,3.4c-1.5,2.2-2.3,5-2.3,8.2
            c0,0.1,0,0.2,0,0.2c-2.9,2.8-5.7,5.1-8.3,7.1c-3.6,2.7-6.6,4.5-9,5.5c-2.4,1-4.1,1.1-4.9,0.3c-0.8-0.8-0.4-2.7,1.2-5.6
            c1.5-2.9,2.8-5.5,3.8-7.6c1.1-2.1,2.1-4,2.9-5.6c0.9-1.6,1.7-3.1,2.4-4.5c0.7-1.3,1.6-2.8,2.5-4.3c0.8-1.5,1-2.9,0.7-4.2
            c-0.3-1.3-1-2.3-2-2.9c-1.1-0.7-2.4-1-3.9-0.8c-1.6,0.1-3.1,0.8-4.6,2c-3.1,2.5-6.6,5.4-10.3,8.8c-3.8,3.4-6.9,6.5-9.6,9.3
            c0,0,0,0,0,0c-5.5,5.6-10.2,10.3-14.1,14c-3.9,3.7-7.3,7-10.2,9.8c-1.7,1.7-3.2,2.9-4.5,3.8c-1.3,0.9-2.2,1.2-2.9,1
            c-0.6-0.2-0.9-1.2-0.6-3c0.2-1.8,1-4.5,2.4-8.2c1.4-3.6,3.6-8.9,6.7-15.8c3.1-6.9,6.8-14.5,11-22.9c4.2-8.3,8.9-16.9,14-25.6
            c5.1-8.7,10.3-16.8,15.7-24.1c1.6-2.1,2.4-4.2,2.4-6.3c0-2.1-0.5-3.7-1.5-4.9c-0.9-1.2-2.2-1.7-3.9-1.6c-1.6,0.1-3.3,1.2-4.9,3.3
            c-1.5,1.9-4.3,5.6-8.4,11.3c-4.1,5.6-9.2,12.3-15.2,19.9c-6,7.6-12.7,15.8-20.1,24.5c-7.4,8.7-15,17.1-22.8,25.3
            c-1.7,1.8-2.7,3.4-2.8,4.8c-0.2,1.4,0.2,2.4,1,3.1c0.8,0.7,2,0.9,3.5,0.7c1.5-0.2,3-1.1,4.5-2.6c4.6-4.8,8.9-9.5,12.8-14
            c3.9-4.5,7.1-8.2,9.5-11s3.9-4.4,4.6-4.8c0.6-0.4,0.1,1.2-1.6,4.6c-1.7,3.4-3.8,7.6-6.1,12.7c-2.4,5-4.8,10.3-7.2,15.7
            c-2.4,5.4-4.7,10.9-6.6,16.3c-2,5.4-3.4,10.1-4.1,14c-0.8,4.1-1,7.4-0.6,10c0.4,2.6,1.3,4.2,2.8,5c1.5,0.8,3.4,0.6,5.8-0.5
            c2.4-1.1,5.2-3.4,8.6-6.8c6.2-6.4,12.8-13.3,19.7-20.9c6.9-7.5,13.5-14.5,19.7-20.9c0,0,0,0,0,0c1.2-1.3,2.1-2,2.6-2.1
            c0.5-0.1,0.7,0.2,0.6,1c-0.1,0.8-0.3,1.8-0.8,3.2s-1.1,3-1.8,4.7c-1.9,4.5-2.8,8.1-2.6,11c0.2,2.9,1.2,5,2.9,6.2
            c1.7,1.2,4,1.6,6.9,1.1c2.9-0.4,6.2-1.8,9.7-4.2c2.2-1.4,4.5-3.1,6.9-5.1c0.8-0.7,1.6-1.4,2.5-2c-3.1,6.3-6,12.6-8.7,18.8
            c-4.5,10.5-7.9,20.7-10.2,30.4c-1.8,7.7-1.7,13.5,0.3,17.5c2,3.9,5,5.6,9.2,5.1c4.1-0.6,8.8-3.6,14.1-9.1
            c5.3-5.5,10.3-13.8,15.1-24.9c1.4-3,2.5-6.1,3.4-9.3c0.9-3.2,1.6-6.2,2.2-9c0.5-2.9,1-5.5,1.2-7.8c0.3-2.3,0.4-4.3,0.4-5.8
            c0-2,0.2-3.5,0.6-4.5c0.4-1,1.4-1.4,2.9-1.2c3,0.5,6.2,0.5,9.4-0.3c2.6-0.6,5.1-1.5,7.6-2.6c-2.4,4.9-3.8,9.3-4.4,13.1
            c-0.9,6.4,0,11.1,2.8,14.1c2.8,3,7,4.3,12.5,4c5.6-0.4,11.7-2.5,18.5-6.4c8.1-4.6,15.7-10.2,22.7-16.7c7-6.5,14.2-13.5,21.4-20.9
            c0,0,0,0,0,0c0.8-0.8,1.8-1.8,3-3c1.2-1.2,2.4-2.4,3.6-3.5c1.2-1.2,2.3-2.2,3.4-3.1c1-0.9,1.8-1.5,2.4-1.9c0.9-0.5,1.8-0.6,2.6-0.3
            c0.8,0.3,1.2,1.2,1.1,2.9c-0.1,4.9-0.7,8.6-2,11.1c-1.3,2.5-2.7,4.1-4.3,4.7c-2.7,0.7-5.3,1.9-7.8,3.5c-2.5,1.6-4.7,3.6-6.4,5.9
            c-2.6,3.5-3.8,6.7-3.4,9.6c0.4,2.9,1.7,4.9,3.9,6.2c2.2,1.3,5,1.7,8.2,1c3.3-0.6,6.4-2.6,9.4-5.9c1.6-1.8,3.1-3.6,4.5-5.6
            c1.4-2,2.7-4,4-6c5.5-0.9,11.2-2.7,17.3-5.4c6.1-2.8,11.3-6.4,15.7-10.8c0.3-0.2,0.5-0.5,0.7-0.7l6.9-7.2
            c-4.3,9.7-6.9,17.7-7.7,23.9c-0.8,6.2-0.2,10.4,1.8,12.7c2,2.3,5.2,2.7,9.6,1c4.4-1.6,9.7-5.4,15.8-11.5l18.7-18.8c0,0,0,0,0.1-0.1
            c4.2-4.3,7.4-7.5,9.5-9.6c2.1-2.1,3.5-3.1,4.2-3.1c0.6,0,0.6,0.9,0,2.6c-0.6,1.8-1.6,4.3-3,7.6c-1,2.3-1.8,4.2-2.5,5.4
            c-0.6,1.3-1.2,3.1-1.8,5.4c-0.4,2.3-0.2,4.4,0.8,6.1c1,1.7,2.6,2.7,4.8,3c2.3,0.3,5.2-0.5,8.9-2.3c3.7-1.8,8-5.1,13.1-9.9
            c0.9-0.9,1.8-1.7,2.5-2.2c0.8-0.5,1.3-0.8,1.7-0.7c0.4,0.1,0.4,0.4,0.2,1.1c-0.2,0.7-0.8,1.8-1.7,3.2c-0.9,1.3-2.4,3.3-4.3,6.1
            c-2,2.8-4.2,5.9-6.6,9.4c-2.5,3.5-5.1,7.2-7.9,11c-2.8,3.8-5.5,7.5-7.9,11c-2.5,3.5-4.6,6.7-6.5,9.4c-1.9,2.8-3.2,4.8-4,6.1
            c-1.1,2-1.6,4-1.2,5.9c0.3,1.9,1.2,3.4,2.7,4.4c1.5,1,3.5,1.4,6,1.2c2.5-0.2,5.4-1.4,8.6-3.5c1.8-1.2,4.6-3.5,8.3-7
            c3.7-3.5,7.9-7.5,12.5-12.1s9.5-9.5,14.6-14.6c5.1-5.1,9.9-10.1,14.4-14.8c4.5-4.7,8.6-8.9,12.1-12.5c3.5-3.6,6-6.2,7.5-7.7
            c0,0,0,0,0,0c4.6-4.8,8.9-9.5,12.8-14c3.9-4.5,7.1-8.2,9.5-11c2.4-2.8,3.9-4.4,4.6-4.8c0.6-0.4,0.1,1.2-1.6,4.6
            c-1.7,3.4-3.8,7.6-6.1,12.7c-2.4,5-4.8,10.3-7.2,15.7c-2.4,5.4-4.7,10.9-6.6,16.3c-2,5.4-3.4,10.1-4.1,14c-0.8,4.1-1,7.4-0.6,10
            c0.4,2.6,1.3,4.2,2.8,5c1.5,0.8,3.4,0.6,5.8-0.5c2.4-1.1,5.2-3.4,8.6-6.8c5.7-5.9,11.8-12.2,18.1-19.1c-0.2,0.9-0.4,1.8-0.5,2.6
            c-0.9,6.4,0,11.1,2.8,14.1c2.8,3,7,4.3,12.5,4c5.6-0.4,11.7-2.5,18.5-6.4c8.1-4.6,15.7-10.2,22.7-16.7c7-6.5,14.2-13.5,21.4-20.9
            c1.7-1.8,2.7-3.4,2.9-4.9C689.2,120.7,688.9,119.5,688,118.8z M282.5,158.9c-1,6.3-3.9,13.8-8.8,22.5c-2.4,4.2-4.5,7.4-6.4,9.6
            c-1.9,2.2-3.4,3.4-4.5,3.5c-1.1,0.2-1.7-0.5-1.9-2.2c-0.1-1.6,0.4-4.1,1.5-7.5c2.4-6.9,5.1-13.8,8.3-20.7
            c3.2-6.9,6.7-13.9,10.4-21.1C283,147.3,283.5,152.6,282.5,158.9z M335.4,126.4c2.2-2.8,4.4-5.3,6.6-7.5c2.2-2.2,4.4-4,6.6-5.4
            c2.1-1.4,4.1-2.3,6-2.7c2.2-0.4,3.3,0.4,3.3,2.4c0,2-1.2,4.4-3.4,7.2c-2.2,2.8-5.5,5.7-9.7,8.5c-4.2,2.8-9.4,4.9-15.4,6.1
            C331.2,132.1,333.3,129.3,335.4,126.4z M641.2,115.5c2.2-2.2,4.4-4,6.6-5.4c2.1-1.4,4.1-2.3,6-2.7c2.2-0.4,3.3,0.4,3.3,2.4
            c0,2-1.2,4.4-3.4,7.2c-2.2,2.8-5.5,5.7-9.7,8.5c-4.2,2.8-9.4,4.9-15.4,6.1c1.8-2.9,3.8-5.8,6-8.6
            C636.8,120.2,639,117.7,641.2,115.5z"/>
</g>
</svg>
