<?xml version="1.0" encoding="utf-8"?>
<svg version="1.1" id="Layer_1" xmlns="http://www.w3.org/2000/svg" xmlns:xlink="http://www.w3.org/1999/xlink" x="0px" y="0px"
   viewBox="0 0 1008 386.7" style="enable-background:new 0 0 1008 386.7;" xml:space="preserve">
<style type="text/css">
  .st0{fill:#FFFFFF;}
</style>
<path d="M992.6,164.3c-6.1-5.7-14.2-8.8-22.9-8.8c-1.2,0-2.5,0.1-3.8,0.2c-1.1-14.7-8.4-27.2-20.7-34.7c-0.2-0.1-0.3-0.2-0.5-0.3
  c-7.6-4.5-16.6-6.8-26.7-6.8c-0.4,0-0.9,0-1.3,0c-10.1,0.2-20.4,3.3-31.6,9.4c-2.9,1.6-5.9,3.5-8.9,5.6c2.4-4.2,4.9-8.4,7.4-12.6
  c8.9-14.9,18.2-28.8,27.5-41.1c6.6-8.5,10-18.2,10-27.9c0-12.6-4.6-21-8.5-25.9c-6.8-8.5-16.6-13.1-27.7-13.1c-0.5,0-0.9,0-1.4,0
  c-7.7,0.3-19,3.3-29.1,16.1c-3,3.8-8.3,10.7-16.2,21.1c-7.5,10-16.8,21.9-27.7,35.4c-10.9,13.5-23.2,28.2-36.7,43.8
  c-10.2,11.8-20.8,23.5-31.6,34.8c-2.7-12.4-9.1-19.9-14.1-24c-7-5.8-15.4-8.8-24.4-8.8c-1.3,0-2.6,0.1-4,0.2
  c-6,0.6-16.8,3.4-25.8,14.8c-4.5-5.5-10.3-9.5-17.1-11.9c0.8-1.3,1.6-2.6,2.2-4c3.6-7.4,5-15.3,4.1-23.5c-0.8-7.8-3.4-14.9-7.8-21.2
  c-3.2-4.5-7.2-8.1-11.8-10.6c0-0.2,0-0.4-0.1-0.5c-1-8.3-4.3-15.7-9.6-21.4c-6.1-6.6-14.2-10.4-23-10.8c-0.9-0.1-1.8-0.1-2.7-0.1
  c-5,0-10.1,1.1-15,3.1c-5.1,2.2-9.9,5.4-14.2,9.6c-4.5,4.2-8.9,9.5-13.5,16c-1.7,2.4-3.3,4.8-5,7.5c-3.1,0.3-6.2,0.5-9.3,0.8
  c-8,0.7-15.8,1.4-23.3,2.3c-7.2,0.9-13.9,1.8-19.8,2.7c-7.1,1.1-12.8,2.3-17.6,3.8c-0.4,0.1-0.8,0.3-1.2,0.4
  c-9.4,3.4-16.8,10.6-20.8,20.1c-2.6,6.2-3.8,12.7-3.5,19.2c0,0.1,0,0.1,0,0.2c-0.4,0-0.7-0.1-1.1-0.1c-1-0.1-2.1-0.1-3.2-0.1
  c-6.6,0-12.9,1.4-18.7,4.3c-4.4,2.1-9,5.1-14.6,9.6c-3.5,2.8-7.2,5.9-11,9.3c-3-10.5-9.5-19.3-19-25.2c-0.2-0.1-0.3-0.2-0.5-0.3
  c-7.6-4.5-16.6-6.8-26.7-6.8c-0.4,0-0.9,0-1.3,0c-10.1,0.2-20.4,3.3-31.6,9.4c-9.5,5.2-19.2,12.9-29.7,23.4
  c-2.1,2.1-4.3,4.4-6.4,6.8c1-1.5,2-3.1,3.1-4.6c1.7-2.5,5-7.1,11.7-15.1c5.7-6.8,11.8-14,18.5-22c6.5-7.7,12.8-15.4,18.6-22.8
  c6.8-8.5,11.6-15.6,14.7-21.7c4.8-9.2,6.8-18.7,5.8-28.3c-1.4-13.6-7.8-22-12.9-26.7C354.1,6.3,345.4,3,335.8,3
  c-1.9,0-3.9,0.1-5.9,0.4c-10.4,1.5-20.2,7.3-29.1,17.4c0,0-0.1,0.1-0.1,0.1c-6,7-12.8,15.5-20.6,26.1c-6.5,8.7-13.3,18.4-20.4,28.7
  c-1.9-2.6-4.2-5-6.7-7c-5.3-4.3-11.8-7-18.8-8c-1.8-0.3-3.6-0.4-5.3-0.4c-6.1,0-12.3,1.6-17.7,4.5c-9.1,5-24.3,22.7-14.9,10.4
  c6.6-8.5,10.1-18.2,10.1-27.9c0-12.6-4.6-21-8.5-25.9c-6.8-8.5-16.6-13.1-27.7-13.1c-0.5,0-0.9,0-1.4,0c-7.7,0.3-19,3.3-29.1,16.1
  c-3,3.8-8.3,10.7-16.2,21.1c-7.5,10-16.8,21.9-27.7,35.4c-10.9,13.5-23.2,28.2-36.7,43.8c-13.2,15.2-27,30.2-41,44.4
  c-7.5,7.5-11.8,15.7-12.9,24.3c-1.4,11.6,2.5,22.4,11,29.6c4.1,3.5,9,6,14.3,7.1c-3.3,9.2-5.7,17.4-7.2,24.8c0,0,0,0.1,0,0.1
  c-2.1,10.5-2.6,19.4-1.6,27.2c2.4,17.7,12.6,25.9,18.5,29.2c5.1,2.9,11,4.4,17,4.4c5.9,0,12-1.4,18.1-4.3
  c7.4-3.5,14.9-9.1,23.6-17.7c10.5-10.5,21.6-22,33.1-34.2c2.1,2.4,4.3,4.2,6,5.4c3.8,2.8,8.1,4.8,12.8,6.1
  c-4.7,12.7-8.5,25.1-11.5,37.1c-3.3,13.2-4,24.7-2.1,35.1c2.2,12.3,7.3,22.2,15,29.5c8.1,7.5,18.3,11.5,29.6,11.5
  c1.3,0,2.7-0.1,4-0.2c10.7-0.9,21.2-5.4,31.3-13.5c8.2-6.5,15.8-15.3,23.5-26.9c7.1-10.8,13.6-24.2,19.4-39.9c0-0.1,0-0.1,0.1-0.2
  c1.8-4.9,3.2-9.8,4.4-14.7c6.8,7.5,19.3,16.4,40.2,16.4c1.3,0,2.7,0,4-0.1c14.4-0.8,29.8-5.7,45.8-14.8c11.6-6.5,22.8-14,33.4-22.3
  c3.3,5.1,7.8,9.5,13.2,12.8c7.1,4.3,15.1,6.5,23.9,6.5c3.2,0,6.6-0.3,9.9-0.9c11.8-2.1,22.7-8.4,32.3-18.7
  c3.8-4.1,7.4-8.5,10.6-13.1c0.5-0.7,1-1.5,1.5-2.2c5.6-1.4,11.3-3.2,17-5.3c1.3,8.7,4.5,15.9,9.5,21.9c7.3,8.6,17.8,13.3,29.5,13.3
  c5.7,0,11.5-1.1,17.8-3.3c11.9-4.2,24.6-12.9,38.8-26.6c0.1-0.1,8.7-8.6,8.7-8.6c3,3.8,6.6,6.9,10.7,9.2c-2.8,3.8-5.5,7.6-8.1,11.2
  c-4.5,6.3-8.7,12.1-12.3,17.3c-3.9,5.5-6.5,9.4-8.2,12.1c-0.2,0.3-0.3,0.5-0.5,0.8c-5.3,9-7.3,18.8-5.8,28.4
  c1.6,10.7,7.2,19.9,15.7,26c7,5,15.3,7.6,24.8,7.6c1.2,0,2.5,0,3.8-0.1c9.2-0.6,18.5-4,28.4-10.4c4.9-3.1,11-8.1,19.2-15.6
  c7-6.5,14.9-14,23.6-22.3c8.6-8.2,17.7-17.2,27.3-26.6c6-5.9,11.8-11.7,17.4-17.3c-0.8,6.6-0.8,12.5-0.1,17.9
  c2.4,17.7,12.6,25.9,18.5,29.2c5.1,2.9,11,4.4,17,4.4c5.9,0,12-1.4,18.1-4.3c7.4-3.5,14.9-9.1,23.6-17.7c0.5-0.5,1-1,1.5-1.5
  c7.3,6.6,19,13.1,37,13.1c1.3,0,2.7,0,4-0.1c14.4-0.8,29.8-5.7,45.7-14.8c16.6-9.3,32.3-20.6,46.8-33.6c13.3-12,27-25,40.7-38.7
  c7.3-7.3,11.7-15.4,13-24C1004.3,182.8,1000.7,171.8,992.6,164.3z"/>
<path class="st0" d="M210.6,137.2c2.5,0.2,4.2-1.2,5.3-4.2c0.6-1.5,1.9-3.4,3.8-5.8c1.9-2.3,4.1-5,6.6-7.8c2.4-2.9,4.9-5.8,7.2-8.8
  c2.3-3,4.2-5.8,5.4-8.3c1.3-2.6,1.5-5,0.8-7.2c-0.8-2.2-1.9-4-3.5-5.3s-3.5-2.1-5.8-2.4c-2.2-0.3-4.3,0.1-6.2,1.1
  c-5.1,2.8-9.1,6.4-12,10.9s-5,9-6.2,13.6c-1.3,4.6-1.9,8.8-1.9,12.5c0,3.7,0.3,6.2,1,7.5C206.3,135.6,208.1,137,210.6,137.2z"/>
<path class="st0" d="M974.2,184.1c-1.5-1.4-3.6-1.9-6.4-1.4c-2.8,0.4-5.7,2.2-8.6,5.4c-14.5,14.3-27.4,26-38.7,35.2
  c-11.3,9.2-21.9,16.2-31.7,21.1c-7.9,3.8-14.5,6-19.8,6.6c-5.3,0.5-9.4-0.3-12.3-2.4c-2.9-2.1-4.5-5.2-4.8-9.3
  c-0.3-4,0.6-8.6,2.7-13.8c18.8-3.8,34.4-9.6,46.9-17.3c12.5-7.7,21.8-15.7,28-24.2c6.2-8.4,9.4-16.4,9.6-23.8
  c0.2-7.5-2.5-12.9-8-16.3c-3.6-2.1-8.2-3.1-13.8-3c-5.5,0.1-11.9,2.1-19,6.1c-7.1,3.9-15,10.2-23.7,18.9c-6.4,6.4-13,14.4-19.8,24
  c-9.5,9.4-17.7,17.4-24.5,23.7c-7.3,6.7-13.6,12.6-18.9,17.8c-3.2,3-6,5.3-8.3,6.9c-2.4,1.6-4.1,2.2-5.3,1.8
  c-1.2-0.4-1.6-2.2-1.1-5.4c0.4-3.2,1.9-8.2,4.5-15c2.6-6.6,6.8-16.2,12.6-28.8c5.9-12.6,12.7-26.4,20.6-41.6
  c7.9-15.1,16.6-30.7,26.1-46.6c9.5-15.9,19.3-30.5,29.3-43.7c3-3.8,4.5-7.7,4.5-11.5s-0.9-6.8-2.6-9c-1.7-2.1-4.1-3.1-7-3
  c-3,0.1-6,2.1-9,5.9c-2.8,3.4-8,10.2-15.7,20.5c-7.7,10.2-17.1,22.3-28.3,36.2c-11.2,13.9-23.6,28.7-37.3,44.5
  c-13.7,15.8-27.7,31-42.2,45.8c0,0,0,0-0.1,0.1c-6.2,6.2-13.5,13.5-22,21.9c-8.5,8.4-17.3,17-26.4,25.6
  c-9.1,8.6-17.8,16.9-26.2,24.6c-8.4,7.8-15.6,14.3-21.6,19.5c-6,5.2-10.2,8.5-12.6,9.9c-2.5,1.4-2.2-0.1,0.8-4.3
  c2.6-3.6,6.8-9.3,12.8-17.1c6-7.8,12.5-16.6,19.5-26.6c7-9.9,14-20.4,21-31.5c6.9-11.1,12.6-21.8,17.1-32c1.9-4.5,2.5-8.7,1.6-12.8
  c-0.9-4-2.5-7.1-5-9.1c-2.5-2-5.3-2.9-8.5-2.6c-3.2,0.3-6.1,2.5-8.6,6.6c-2.6,4.3-4.9,8-7,11c-2.1,3.1-4.4,6.1-6.7,9
  c-2.4,2.9-5,5.8-7.8,8.6c-2.9,2.9-6.4,6.1-10.4,9.8c-8.1,7-12.9,9.4-14.2,7.2c-1.4-2.2,0.3-8.5,5-18.7c2.6-5.8,3.9-10.9,4.2-15.5
  c0.2-4.6-0.6-8.3-2.4-11.2c-1.8-2.9-4.3-4.7-7.5-5.6c-3.2-0.9-6.8-0.4-10.9,1.3c-4.3,1.9-8.3,4.3-12.2,7c-3.8,2.8-7.5,5.7-10.9,8.8
  c-3.4,3.1-6.5,6.1-9.3,9c-2.8,2.9-5.1,5.3-7,7.2c0,0,0,0,0,0.1c-7.2,7-14.1,13.4-20.6,19.1c-6.5,5.8-11.8,10.2-15.8,13.4
  c-3.6,2.8-6.6,4.4-8.8,5c-2.2,0.5-3.9,0.4-5-0.3c-1.1-0.7-1.7-2.1-1.9-4c-0.2-1.9,0-4,0.6-6.4c1.1-3.8,2.5-8.3,4.3-13.4
  c1.8-5.1,3.9-10.5,6.2-16.2c2.3-5.6,4.9-11.4,7.5-17.1c2.7-5.8,5.5-11.3,8.5-16.6c2.3-4.5,5.3-9.4,8.8-14.7c3.5-5.3,7.2-10.7,11-16
  c6.2-0.2,12.3-0.4,18.2-0.6c6-0.2,11.9-0.6,17.9-1.3c3.4-0.4,5.8-2.1,7.2-5c1.4-2.9,1.9-5.9,1.6-9.1c-0.3-3.2-1.3-6-3-8.5
  c-1.7-2.5-3.9-3.4-6.7-2.7c-2.1,0.4-4.6,0.9-7.5,1.3c-2.9,0.4-6.1,0.9-9.8,1.3c3.2-4.9,5.3-9.3,6.4-13.3c1.1-3.9,1.4-7.3,1.1-9.9
  c-0.3-2.7-1.2-4.7-2.6-6.2c-1.4-1.5-3-2.2-5-2.2c-1.7-0.2-3.6,0.1-5.6,1c-2,0.9-4,2.2-5.9,4.2c-3.2,3-6.6,7-10.2,12.2
  c-3.6,5.1-7.3,11-10.9,17.6c-7.7,0.6-15.4,1.3-23.2,1.9c-7.8,0.6-15.2,1.4-22.2,2.2c-7,0.9-13.4,1.7-19,2.6
  c-5.7,0.9-10.2,1.8-13.6,2.9c-2.3,0.9-4.1,2.6-5.1,5.1c-1.1,2.6-1.5,5.1-1.4,7.7c0.1,2.6,0.9,4.8,2.2,6.6c1.4,1.8,3.5,2.4,6.2,1.8
  c11.7-3,22.9-5.1,33.4-6.2c10.6-1.2,21-2,31.2-2.4l-9.6,20.5c-6.4,7.3-13.1,14.7-20.2,22.4S521,180,513.1,188.1c0,0,0,0,0,0
  c-5.5,5.3-11.9,9.6-19.2,12.9c-7.3,3.3-14.5,6-21.8,8.2c3-8.1,5.1-15.9,6.4-23.4c1.3-7.5,1.8-14,1.6-19.5c0-3.2-0.9-6-2.7-8.5
  c-1.8-2.5-4.1-4.3-6.7-5.6c-2.7-1.3-5.5-2-8.5-2.2c-3-0.2-5.8,0.3-8.3,1.6c-2.4,1.1-5.4,3.1-9.3,6.2c-3.8,3.1-7.8,6.5-12,10.2
  c-4.2,3.7-8.2,7.5-12,11.2c-3.1,3-5.6,5.4-7.5,7.4c-0.5,0.4-0.9,0.9-1.4,1.4c0,0,0,0,0,0c-0.3,0.3-0.6,0.6-0.9,0.9
  c-14.1,13.9-26.7,25.3-37.8,34.3c-11.3,9.2-21.9,16.2-31.7,21.1c-7.9,3.8-14.5,6-19.8,6.6c-5.3,0.5-9.4-0.3-12.3-2.4
  c-2.9-2.1-4.5-5.2-4.8-9.3c-0.3-4,0.6-8.6,2.7-13.8c18.8-3.8,34.4-9.6,46.9-17.3c12.5-7.7,21.8-15.7,28-24.2
  c6.2-8.4,9.4-16.4,9.6-23.8c0.2-7.5-2.5-12.9-8-16.3c-3.6-2.1-8.2-3.1-13.8-3c-5.5,0.1-11.9,2.1-19,6.1c-7.1,3.9-15,10.2-23.7,18.9
  c-6.3,6.3-12.9,14.2-19.7,23.8c-4.1,3.8-8.7,7-13.7,9.6c-5.8,3-11.7,5-17.9,6.1c-6.2,1.1-12.3,1-18.4-0.2
  c-6.1-1.2-11.6-3.7-16.5-7.5c5.8-9.6,12.1-19.6,19-30.1c6.9-10.5,14.3-21.7,22.2-33.6c3-4.5,7.5-10.3,13.4-17.4
  c6-7.1,12.2-14.5,18.6-22.1c6.4-7.6,12.4-14.9,18.1-22.1c5.6-7.1,9.6-13,12-17.4c2.3-4.5,3.3-8.8,2.9-13c-0.4-4.2-1.8-7.3-4.2-9.4
  c-2.3-2.1-5.4-2.9-9.3-2.4c-3.8,0.5-8,3.4-12.5,8.5c-5.6,6.4-12,14.6-19.4,24.5c-7.4,9.9-15.1,20.9-23.2,33
  c-8.1,12.1-16.3,24.6-24.6,37.8c-8.3,13.1-16.2,26-23.7,38.6c-0.4,0-0.9,0-1.3-0.2c-0.4-0.1-0.9-0.2-1.3-0.2c-4.3,0-7.8,2-10.7,6.1
  c-2.9,4.1-4.3,9-4.3,14.7c0,0.5,0,0.9,0,1.3c-5.1,4.8-10.1,8.9-14.8,12.3c-6.6,4.8-12.2,8.1-16.6,9.9c-4.5,1.8-7.5,2-9,0.5
  c-1.5-1.5-0.8-4.9,2.2-10.2c2.8-5.3,5.2-9.9,7.2-13.8c2-3.8,3.8-7.3,5.4-10.2c1.6-3,3.1-5.7,4.5-8.2c1.4-2.5,2.9-5.1,4.6-7.8
  c1.5-2.8,2-5.3,1.4-7.7c-0.5-2.3-1.8-4.2-3.7-5.4c-1.9-1.3-4.3-1.8-7.2-1.6c-2.9,0.2-5.7,1.4-8.5,3.5c-5.8,4.5-12.1,9.8-19,15.8
  c-6.9,6.1-12.9,11.7-17.8,16.8c0,0,0,0-0.1,0.1c-10.2,10.2-18.9,18.7-26.2,25.4c-7.3,6.7-13.5,12.6-18.9,17.8c-3.2,3-6,5.3-8.3,6.9
  c-2.3,1.6-4.1,2.2-5.3,1.8c-1.2-0.4-1.6-2.2-1.1-5.4c0.4-3.2,1.9-8.2,4.5-15c2.6-6.6,6.8-16.2,12.6-28.8
  c5.9-12.6,12.7-26.4,20.6-41.6c7.9-15.1,16.6-30.7,26.1-46.6c9.5-15.9,19.3-30.5,29.3-43.7c3-3.8,4.5-7.7,4.5-11.5s-0.9-6.8-2.6-9
  c-1.7-2.1-4.1-3.1-7-3c-3,0.1-6,2.1-9,5.9c-2.8,3.4-8,10.2-15.7,20.5C137.5,71.9,128,84,116.8,97.8c-11.2,13.9-23.6,28.7-37.3,44.5
  c-13.7,15.8-27.7,31-42.2,45.8c-3.2,3.2-5,6.1-5.3,8.6s0.3,4.5,1.8,5.8c1.5,1.3,3.6,1.8,6.4,1.4c2.8-0.3,5.5-1.9,8.3-4.6
  c8.5-8.7,16.4-17.2,23.7-25.4c7.3-8.2,13.1-14.9,17.6-20s7.3-8,8.5-8.6c1.2-0.6,0.2,2.1-3,8.3c-3.2,6.2-7,13.9-11.5,23
  c-4.5,9.2-9,18.7-13.6,28.6c-4.6,9.9-8.8,19.8-12.5,29.6c-3.7,9.8-6.4,18.4-7.8,25.6c-1.5,7.5-1.9,13.5-1.3,18.2
  c0.6,4.7,2.3,7.8,5,9.3c2.7,1.5,6.2,1.2,10.6-0.8c4.4-2,9.7-6.1,15.8-12.3c11.5-11.5,23.7-24.1,36.5-37.8
  c12.8-13.7,25-26.2,36.5-37.8c0,0,0,0,0.1-0.1c2.3-2.3,3.9-3.6,4.7-3.8c0.9-0.2,1.2,0.4,1.1,1.8c-0.1,1.4-0.6,3.4-1.6,5.9
  c-1,2.6-2.1,5.4-3.4,8.6c-3.6,8.1-5.3,14.8-5,20.2c0.3,5.3,2,9.1,5.1,11.4c3.1,2.2,7.3,3,12.6,2.2c5.3-0.7,11.3-3.3,17.9-7.5
  c4.1-2.6,8.3-5.6,12.8-9.1c1.2-0.9,2.3-1.8,3.5-2.8c-5.7,11.1-11,22.3-16,33.3c-8.5,19.2-14.9,37.6-19.2,55.4
  c-2.3,9.4-2.9,17.3-1.8,23.8c1.2,6.5,3.5,11.4,6.9,14.6c3.4,3.2,7.7,4.6,13,4.2c5.2-0.4,10.8-3,16.6-7.7
  c5.9-4.7,11.8-11.6,17.8-20.6c6-9.1,11.5-20.5,16.6-34.4c3.6-10,5.6-20,6.1-29.9c0.4-9.9-0.6-18.9-3.2-27c-0.4-1.5-1.4-2.1-3-1.9
  c-1.6,0.2-2.5,1.1-2.7,2.6c-1.1,8.1-3,16.4-5.8,24.8c-2.8,8.4-6.6,17.3-11.5,26.7c-4.3,7.9-8.1,13.8-11.5,17.8
  c-3.4,3.9-6.2,6.1-8.3,6.4c-2.1,0.3-3.4-1.1-3.7-4.2c-0.3-3.1,0.6-7.7,2.7-13.9c5.3-14.9,10.8-28.6,16.5-41
  c5.7-12.4,11.8-24.4,18.4-36.2c2.3,1.5,5.8,3.1,10.2,4.8c4.5,1.7,10.5,2.6,17.9,2.6c11.6,0,22.1-1.9,31.5-5.7
  c-4.6,9.3-7.5,17.5-8.6,24.6c-1.8,11.7-0.2,20.4,4.8,25.9c5,5.5,12.6,8,22.9,7.5c10.2-0.5,21.5-4.3,33.9-11.4
  c14.9-8.3,28.9-18.3,41.9-30.1c13-11.7,26.2-24.3,39.7-37.8c1.5-1.5,3.4-3.3,5.6-5.4c2.2-2.1,4.5-4.3,6.7-6.4c2.2-2.1,4.3-4,6.2-5.6
  c1.9-1.6,3.4-2.7,4.5-3.4c1.7-0.9,3.3-1,4.8-0.5c1.5,0.5,2.1,2.3,1.9,5.3c-0.2,9-1.5,15.7-3.8,20.3c-2.4,4.6-5,7.4-8,8.5
  c-4.9,1.3-9.7,3.4-14.4,6.2c-4.7,2.9-8.6,6.5-11.8,10.7c-4.9,6.4-7,12.2-6.4,17.4c0.6,5.2,3,9.1,7,11.5c4,2.5,9.1,3.1,15,2.1
  c6-1.1,11.7-4.6,17.3-10.6c3-3.2,5.8-6.6,8.3-10.2c2.6-3.6,5-7.3,7.4-10.9c10-1.5,20.6-4.7,31.8-9.6c11.2-4.9,20.9-11.4,29-19.5
  c0.5-0.4,0.9-0.9,1.3-1.3l12.8-13.1c-8.1,17.7-13,32.2-14.6,43.5c-1.6,11.3-0.6,19.1,3,23.4c3.6,4.3,9.5,5,17.6,2.1
  c8.1-2.9,17.8-9.8,29.1-20.6l34.6-33.9c0,0,0.1-0.1,0.1-0.1c7.8-7.8,13.7-13.6,17.7-17.3c3.9-3.7,6.5-5.6,7.7-5.6
  c1.2,0,1.2,1.6,0,4.8c-1.2,3.2-3,7.8-5.6,13.8c-1.9,4.3-3.5,7.6-4.6,9.9c-1.2,2.4-2.3,5.7-3.4,9.9c-0.9,4.3-0.4,8,1.3,11.2
  c1.7,3.2,4.6,5.1,8.8,5.6c4.2,0.5,9.6-0.8,16.3-4c6.7-3.2,14.8-9.2,24.2-17.9c1.7-1.7,3.3-3,4.6-4c1.4-1,2.4-1.4,3-1.3
  c0.6,0.1,0.7,0.8,0.3,2.1c-0.4,1.3-1.5,3.2-3.2,5.8c-1.7,2.3-4.4,6-8,11c-3.6,5-7.7,10.7-12.3,17.1c-4.6,6.4-9.5,13.1-14.7,20
  c-5.2,6.9-10.1,13.6-14.7,20c-4.6,6.4-8.6,12.1-12.2,17.1c-3.5,5-6,8.7-7.5,11c-2.1,3.6-2.9,7.2-2.4,10.7c0.5,3.5,2.1,6.2,4.8,8.2
  c2.7,1.9,6.3,2.7,10.9,2.4c4.6-0.3,9.9-2.4,15.8-6.2c3.4-2.1,8.5-6.4,15.4-12.6c6.8-6.3,14.6-13.6,23.2-21.9
  c8.6-8.3,17.6-17.1,27-26.4c9.4-9.3,18.3-18.2,26.7-26.7c8.4-8.5,15.9-16,22.4-22.6c6.5-6.5,11.1-11.1,13.9-13.9c0,0,0,0,0.1-0.1
  c8.5-8.7,16.4-17.2,23.6-25.4c7.3-8.2,13.1-14.9,17.6-20s7.3-8,8.5-8.6c1.2-0.6,0.2,2.1-3,8.3c-3.2,6.2-7,13.9-11.5,23
  c-4.5,9.2-9,18.7-13.6,28.6c-4.6,9.9-8.8,19.8-12.5,29.6c-3.7,9.8-6.3,18.4-7.8,25.6c-1.5,7.5-1.9,13.5-1.3,18.2
  c0.6,4.7,2.3,7.8,5,9.3c2.7,1.5,6.2,1.2,10.6-0.8c4.4-2,9.6-6.1,15.8-12.3c10.6-10.6,21.8-22.1,33.4-34.5c-0.4,1.6-0.7,3.2-1,4.8
  c-1.8,11.7-0.2,20.4,4.8,25.9c5,5.5,12.6,8,22.9,7.5c10.2-0.5,21.5-4.3,33.9-11.4c14.9-8.3,28.9-18.3,41.9-30.1
  c13-11.7,26.2-24.3,39.7-37.8c3.2-3.2,5-6.2,5.4-9C976.3,187.5,975.7,185.5,974.2,184.1z M328.8,190.6c4.1-5.1,8.2-9.6,12.3-13.6
  c4.2-3.9,8.2-7.2,12.2-9.8c3.9-2.6,7.6-4.2,11-4.8c4.1-0.6,6,0.9,5.9,4.5c-0.1,3.6-2.2,8-6.4,13.1c-4.2,5.1-10.1,10.2-17.9,15.4
  c-7.8,5.1-17.2,8.8-28.3,10.9C321,201,324.8,195.8,328.8,190.6z M888.6,177c4.2-3.9,8.2-7.2,12.2-9.8c3.9-2.6,7.6-4.2,11-4.8
  c4.1-0.6,6,0.9,5.9,4.5c-0.1,3.6-2.2,8-6.4,13.1c-4.2,5.1-10.1,10.2-17.9,15.4c-7.8,5.1-17.2,8.8-28.3,10.9
  c3.4-5.3,7.1-10.6,11.2-15.7C880.4,185.5,884.5,181,888.6,177z"/>
</svg>
