<?xml version="1.0" encoding="utf-8"?>
<svg version="1.1" id="Layer_1" xmlns="http://www.w3.org/2000/svg" xmlns:xlink="http://www.w3.org/1999/xlink" x="0px" y="0px"
       viewBox="0 0 608.4 150.4" style="enable-background:new 0 0 608.4 150.4;" xml:space="preserve">
<style type="text/css">
      .st0{fill:#fff;}
</style>
<path class="st0" d="M0.1,146.4L43.2,3.6c0.3-0.5,0.6-0.8,1-0.8l24.8,0c0.9,0,1.3,0.4,1,1.2L35.1,119.6l24.8,0c0.9,0,1.3,0.4,1,1.2
      l-7.8,26c-0.3,0.5-0.6,0.8-1,0.8l-51,0C0.2,147.6-0.2,147.2,0.1,146.4z"/>
<path class="st0" d="M61.7,146.4L104.8,3.6c0.3-0.5,0.6-0.8,1-0.8l24.8,0c0.9,0,1.3,0.4,1,1.2L88.5,146.8c-0.3,0.5-0.6,0.8-1,0.8
      l-24.8,0C61.8,147.6,61.4,147.2,61.7,146.4z"/>
<path class="st0" d="M142.9,2.8h51c0.9,0,1.3,0.4,1,1.2l-8,26c-0.3,0.5-0.6,0.8-1,0.8h-25.4l-8,27.2h23.6c0.9,0,1.3,0.4,1,1.2l-8,26
      c-0.3,0.5-0.6,0.8-1,0.8h-24.2l-18.2,60.8c-0.3,0.5-0.6,0.8-1,0.8H99.9c-0.9,0-1.3-0.4-1-1.2l43-142.8
      C142.2,3.1,142.5,2.8,142.9,2.8z"/>
<path class="st0" d="M204.5,2.8h51c0.9,0,1.3,0.4,1,1.2l-8,26c-0.3,0.5-0.6,0.8-1,0.8h-25.4l-8,27.2h23.6c0.9,0,1.3,0.4,1,1.2l-8,26
      c-0.3,0.5-0.6,0.8-1,0.8h-24.2l-10,33.6h24.8c0.9,0,1.3,0.4,1,1.2l-7.8,26c-0.3,0.5-0.6,0.8-1,0.8h-51c-0.9,0-1.3-0.4-1-1.2
      l43-142.8C203.8,3.1,204.1,2.8,204.5,2.8z"/>
<path class="st0" d="M290.7,46.4l2.6-8v0.2c0.8-2.8,1.2-4.9,1.2-6.4c0-2.8-1.3-4.2-4-4.2c-2.3,0-4.1,0.9-5.6,2.6
      c-1.5,1.7-2.7,4.6-3.8,8.6c-0.4,1.2-0.7,2.3-0.8,3.2c-0.1,0.9-0.2,1.9-0.2,2.8c0,3.5,0.9,6.5,2.6,9c1.7,2.5,3.7,5.1,6,7.8
      c1.5,1.7,2.9,3.6,4.4,5.5c1.5,1.9,2.8,4.1,4,6.5s2.2,5.1,3,8c0.8,2.9,1.2,6.2,1.2,9.8c0,2.7-0.2,5.6-0.7,8.7
      c-0.5,3.1-1.2,6.5-2.3,10.1c-2.3,7.6-4.7,13.9-7.3,19c-2.6,5.1-5.6,9.2-9.1,12.3c-3.5,3.1-7.5,5.3-12.1,6.6
      c-4.6,1.3-10,1.9-16.1,1.9h-3.6c-0.9,0-1.3-0.5-1-1.4l9.2-26.2c0.3-0.7,0.7-0.9,1.2-0.6c0.5,0.1,1.2,0.2,2,0.2
      c2.4,0,4.3-0.9,5.8-2.6c1.5-1.7,2.8-4.5,4-8.4c0.8-2.9,1.2-5.5,1.2-7.8c0-4-0.9-7.4-2.8-10.2c-1.9-2.8-3.9-5.6-6.2-8.4
      c-1.5-1.7-2.9-3.6-4.4-5.5c-1.5-1.9-2.8-4.1-3.9-6.4c-1.1-2.3-2.1-4.9-2.8-7.6c-0.7-2.7-1.1-5.8-1.1-9.3c0-5.5,1.1-11.8,3.2-19
      c2-6.5,4.3-12.2,6.8-16.9c2.5-4.7,5.5-8.6,9-11.6c3.5-3,7.5-5.2,12.1-6.6S292.3,0,298.3,0c8.3,0,14.5,1.5,18.7,4.4
      c4.2,2.9,6.3,7.9,6.3,14.8c0,4.5-1,10.1-3,16.6L316.9,47c-0.3,0.5-0.6,0.8-1,0.8h-24.2C290.8,47.8,290.4,47.3,290.7,46.4z"/>
<path class="st0" d="M329.7,30.8c-0.9,0-1.3-0.4-1-1.2l8-26c0.3-0.5,0.6-0.8,1-0.8h61.6c0.9,0,1.3,0.4,1,1.2l-8,26
      c-0.3,0.5-0.6,0.8-1,0.8h-17.6l-34.8,116c-0.3,0.5-0.6,0.8-1,0.8h-24.8c-0.9,0-1.3-0.4-1-1.2l34.6-115.6H329.7z"/>
<path class="st0" d="M459.1,3.4c0.4-0.4,0.7-0.6,0.8-0.6h26c1.1,0,1.3,0.5,0.8,1.6l-52.8,88.2l-16.4,54.2c-0.3,0.5-0.6,0.8-1,0.8
      h-24.8c-0.9,0-1.3-0.4-1-1.2L407.1,92l0.4-88.2c0-0.7,0.3-1,1-1h26c0.7,0,1,0.3,1,1L432.7,52L459.1,3.4z"/>
<path class="st0" d="M452.1,146.4l43-142.8c0.3-0.5,0.6-0.8,1-0.8h24.8c0.9,0,1.3,0.4,1,1.2l-34.8,115.6h24.8c0.9,0,1.3,0.4,1,1.2
      l-7.8,26c-0.3,0.5-0.6,0.8-1,0.8h-51C452.2,147.6,451.8,147.2,452.1,146.4z"/>
<path class="st0" d="M556.3,2.8h51c0.9,0,1.3,0.4,1,1.2l-8,26c-0.3,0.5-0.6,0.8-1,0.8h-25.4l-8,27.2h23.6c0.9,0,1.3,0.4,1,1.2l-8,26
      c-0.3,0.5-0.6,0.8-1,0.8h-24.2l-10,33.6h24.8c0.9,0,1.3,0.4,1,1.2l-7.8,26c-0.3,0.5-0.6,0.8-1,0.8h-51c-0.9,0-1.3-0.4-1-1.2
      l43-142.8C555.6,3.1,555.9,2.8,556.3,2.8z"/>
</svg>
