<?xml version="1.0" encoding="utf-8"?>
<svg version="1.1" id="Layer_1" xmlns="http://www.w3.org/2000/svg" xmlns:xlink="http://www.w3.org/1999/xlink" x="0px" y="0px"
       viewBox="0 0 637 376.9" style="enable-background:new 0 0 637 376.9;" xml:space="preserve">
<style type="text/css">
      .st0{fill:#000;}
</style>
<g>
      <g>
            <path class="st0" d="M243.8,255.3L123.6,375.5c-0.8,0.8-2,0.8-2.8,0L0.6,255.3c-0.8-0.8-0.8-2,0-2.8l120.2-120.2
                  c0.8-0.8,2-0.8,2.8,0l120.2,120.2C244.6,253.2,244.6,254.5,243.8,255.3z"/>
      </g>
      <g>
            <rect x="166" y="36" transform="matrix(0.7071 -0.7071 0.7071 0.7071 -12.8913 214.9508)" class="st0" width="174" height="174"/>
      </g>
      <g>
            
                  <rect x="296.8" y="166.9" transform="matrix(0.7071 -0.7071 0.7071 0.7071 -67.0766 345.7655)" class="st0" width="174" height="174"/>
      </g>
      <g>
            
                  <rect x="426.9" y="36.7" transform="matrix(0.7071 -0.7071 0.7071 0.7071 63.0311 399.6579)" class="st0" width="174" height="174"/>
      </g>
</g>
</svg>
