<?xml version="1.0" encoding="utf-8"?>
<svg version="1.1" id="Layer_1" xmlns="http://www.w3.org/2000/svg" xmlns:xlink="http://www.w3.org/1999/xlink" x="0px" y="0px"
       viewBox="0 0 1132 477" style="enable-background:new 0 0 1132 477;" xml:space="preserve">
<style type="text/css">
      .st0{fill:#000;}
</style>
<g>
      <path class="st0" d="M151.5,156c0,12.5,8,20,20.5,20c16,0,28-12,28-27.5c0-12-8-19.5-20.5-19.5C164,129,151.5,141,151.5,156z"/>
      <path class="st0" d="M1126.5,207c-4,0-6.5,1.5-8,4c-30.5,54.5-73,81.5-97.5,81.5c-17.5,0-27-14-27-36.5c26-1,75.5-23,75.5-46
            c0-14.5-20-26-45.5-26c-39.5,0-68.5,29-68.5,68c0,2.2,0.1,4.3,0.3,6.3C931.9,299.8,908,326,894.5,326c-7,0-11-7-11-18.5
            c0-35.5,36.5-108,76-171C1029,93.5,1073,54,1073,29c0-15-16-28.5-32-28.5c-50,0-144.2,135.2-181.1,232
            c-14.3,16.7-35.4,36.3-58.4,55c14.5-30,24-56,24-65c0-12-17-33-27-33c-2.5,0-4,1-5,3.5c-17,38.5-43,73-63.5,77.5
            c3.5-25,25.5-66,25.5-71c0-4-12-10-24-10c-6.5,0-10.5,1.5-12.5,4c-2.7,3.4-8.7,19.1-14.2,36.1c-28.3,58-60.3,96.9-76.3,96.9
            c-7,0-11-7-11-19c0-33,29-94,62-148c23.5-2,38.5-6.5,38.5-13.5c0-2.5-1.5-3.5-5-3.5c-2.5,0-8,1-13.5,3c-4,1.5-8,2.5-12.5,3
            c34.5-54.5,71.5-100,83.5-100c1.5,0,2-1,2-2.5c0-8.5-13-19.5-24.5-19.5c-23.5,0-69,50.5-111.5,124c-13-0.5-21.5-2-31.5-5
            c-3.5-1-9-2.5-12.5-2.5c-2.5,0-4,1-4,3.5c0,7.5,16.5,12,42.5,14c-11.9,21.2-22.7,42.8-31.3,63.2c-15.3,20.7-46.7,45-72.2,57.3
            C512,271,506,264,506,255.5c0-15,18.5-40.5,35.5-40.5c11.5,0,21,12,24.5,12c1,0,1.5-1,1.5-3c0-14-32.5-34.5-49-34.5
            c-18.8,0-43.2,25.8-50.7,49.2c-27.6,35.9-59.4,53.8-79.3,53.8c-17.5,0-27-14-27-36.5c26-1,75.5-23,75.5-46c0-14.5-20-26-45.5-26
            c-29.7,0-53.5,16.4-63.4,41.1c-12.9,8.1-29.6,13.9-43.6,13.9c-6,0-10.5-1-14-2.5c16.5-34.5,35-69,53-100c70.5-43,115-83.5,115-111
            c0-14-12-25.5-29-25.5c-55.6,0-141.1,123.9-192.1,239.2C187,277,155.2,300,147,300c-3,0-4.5-2-4.5-6c0-16.5,29.5-58.5,29.5-72.5
            c0-11-17.5-32-28.5-32c-3,0-5,1.5-5,4.5c0,4.6-5.1,18.2-10.8,33.1c-28.5,59-61,98.9-77.7,98.9c-7,0-11-7-11-18.5
            c0-35.5,36.5-108,76-171C184.5,93.5,228.5,54,228.5,29c0-15-16-28.5-32-28.5c-63,0-196.5,215-196.5,297c0,30.5,18.5,48,41.5,48
            c22.3,0,43-15.8,71.1-64.1c3,18.1,17.1,34.6,30.4,34.6c14.7,0,38-18.3,59.2-39.8c-16.8,44-27.2,84.5-27.2,113.3
            c0,44,24,60.5,41,60.5c44,0,61-114.5,61-171c0-14-1-22.5-3-29c18.2,0,35.9-4.6,50.2-11.1c-0.7,4.2-1.2,8.6-1.2,13.1
            c0,35,22.5,56,54.5,56c25.1,0,57.7-12.5,89.2-47.8c3.4,11.1,14,21.3,33.8,31.8C466,306.5,440,325.5,440,345.5c0,16.5,18,30,45,30
            c30,0,69.5-39.5,69.5-63.5c0-10-7-16.5-15.5-23c16.2-10.2,35.6-26,51.1-40.4c-7,20-11.1,37.8-11.1,51.4c0,29,18.5,46.5,41.5,46.5
            c23.1,0,43.9-17.3,73.3-69.9c1.6,7.9,10.3,14.4,20.2,14.4c18.5,0,46-22.5,64.5-47.5c-10.5,27-28,61.5-47.5,94.5
            c-94,64.5-124.5,93-124.5,114.5c0,14,12.5,24.5,29,24.5C678,477,738,407.5,788,313c23.6-16.5,44.8-34.2,62.5-52.2
            c-3.8,13.9-6,26.3-6,36.7c0,30.5,18.5,48,41.5,48c23.1,0,44.4-16.9,73.9-69c8,20.1,26.5,31.5,50.1,31.5c32.5,0,77.5-21,116.5-85
            c5-8.5,5.5-10.5,5.5-12C1132,208.5,1130,207,1126.5,207z M1033,210c8.5,0,16.5,3,16.5,8c0,10-35,27-55.5,30.5
            C998,226,1013.5,210,1033,210z M1054.5,23c3,0,5,2.5,5,6.5c0,16.5-35,48.5-82,81C1011,61,1043,23,1054.5,23z M400.5,210
            c8.5,0,16.5,3,16.5,8c0,10-35,27-55.5,30.5C365.5,226,381,210,400.5,210z M416.5,23c4.5,0,7.5,3,7.5,7.5c0,16-36.5,48.5-85.5,82
            C371,60,401.5,23,416.5,23z M210,23c3,0,5,2.5,5,6.5c0,16.5-35,48.5-82,81C166.5,61,198.5,23,210,23z M223,431.5c-6.5,0-10-8-10-22
            c0-33,20-90.5,47.5-151.5c2,5,3.5,11.5,3.5,25C264,329.5,246,431.5,223,431.5z M464,353c-6.5,0-10-2.5-10-8c0-15,26.5-31,56.5-43
            c1,2.5,2,5.5,2,8C512.5,326,483.5,353,464,353z M628.5,455c-4.5,0-7.5-2-7.5-5.5c0-12,35.5-43.5,94.5-86
            C683.5,413.5,649,455,628.5,455z"/>
</g>
</svg>
